<svg viewBox="0 0 36 36" fill="none" xmlns="http://www.w3.org/2000/svg">
<path d="M7.43182 30.6802C7.43182 30.6802 7.59623 30.4134 7.64761 30.3173C7.95588 29.7517 7.50375 29.2608 7.24686 29.0901C6.94887 28.8766 6.40426 28.5565 5.84938 29.2395C5.70552 29.3996 5.35615 29.9118 5.26366 30.1146C4.80126 30.8936 4.05114 32.3663 3.68122 33.1987C3.45515 33.7323 2.96192 35.3865 2.96192 35.3865C2.93109 35.5145 2.96192 35.6319 3.04413 35.7386L3.19826 35.888C3.31129 35.9948 3.49625 35.9841 3.61956 35.9094L7.56541 32.281C7.83257 32.0355 7.8634 31.6833 7.64761 31.3845C7.54486 31.2351 7.31879 30.883 7.42155 30.6909L7.43182 30.6802Z" fill="#F7DECE"/>
<path d="M15.0673 19.0265L13.6287 17.4684C13.6287 17.4684 7.70993 26.294 5.37736 29.9224C5.06909 30.4027 4.90468 31.171 5.36708 31.5446C5.94252 32.0141 6.38437 31.7046 6.89815 31.171C9.42596 28.6632 16.2079 21.1288 16.547 20.7446L15.057 18.9945L15.0776 19.0265H15.0673Z" fill="#F7DECE"/>
<path d="M12.436 19.2825L15.4262 22.0145C16.125 21.2568 16.8032 20.6485 16.8032 20.6485L13.6383 17.4576L12.436 19.2719V19.2825Z" fill="#FA743E"/>
<path d="M10.7717 10.3608L7.03141 6.56165L3.26025 2.52769L3.97955 1.59924L8.3467 4.99289L11.3266 7.31935L10.7717 10.3608Z" fill="#F7DECE"/>
<path d="M4.565 2.35525C4.71489 1.90393 3.87524 1.19377 2.68959 0.769058C1.50394 0.344344 0.421276 0.365908 0.271391 0.817222C0.121506 1.26854 0.961158 1.9787 2.14681 2.40341C3.33245 2.82813 4.41512 2.80656 4.565 2.35525Z" fill="#F7DECE"/>
<path d="M27.7986 4.8009C27.1821 4.993 24.5721 5.61196 22.1676 6.29496C19.5987 7.03132 17.5641 7.70365 17.5641 7.70365L16.3516 10.8412L22.5478 8.25858L28.1274 5.93212C27.9836 5.65465 27.9425 5.11039 27.7986 4.81158V4.8009Z" fill="#F7DECE"/>
<path d="M29.1381 6.18282C30.3997 5.97766 31.3668 5.44315 31.2983 4.98896C31.2298 4.53477 30.1517 4.3329 28.8901 4.53806C27.6286 4.74323 26.6615 5.27774 26.73 5.73193C26.7984 6.18612 27.8766 6.38799 29.1381 6.18282Z" fill="#F7DECE"/>
<path d="M16.8037 20.6379L13.1456 19.4107C13.1456 19.4107 11.1932 17.4577 10.5767 14.683C9.84711 11.3748 11.3268 7.31946 11.3268 7.31946L13.9265 7.9491L17.5641 7.71432C17.5641 7.71432 16.4338 10.8518 17.112 13.2103C17.7902 15.4194 19.0952 15.6328 19.0952 15.6328L18.0573 19.6561L16.7934 20.6486L16.8037 20.6379Z" fill="#FA743E"/>
<path d="M35.9272 9.76331C35.8758 9.60323 35.7422 9.51786 35.5881 9.54987L30.3681 10.4143C30.029 10.4677 29.8132 10.7878 29.8337 11.1613C29.8337 11.2254 29.8337 11.3534 29.8337 11.4068C29.8235 11.5989 29.8337 11.6949 29.618 11.7696C29.3611 11.9617 28.8062 12.1965 29.1453 13.0396C29.4022 13.6052 29.8235 13.6905 30.6558 13.253C31.4367 12.8475 33.2144 12.2499 34.0776 11.5989C34.6016 11.2147 35.8758 10.3289 35.8758 10.3289C35.9786 10.2435 36.0094 10.1155 35.9786 10.0088L35.9272 9.76331Z" fill="#F7DECE"/>
<path d="M35.927 9.76331C35.8756 9.60323 35.742 9.51786 35.5879 9.54987L30.3679 10.4143C30.0288 10.4677 29.7924 10.7985 29.8233 11.172C29.8233 11.172 29.8335 11.4281 29.813 11.5882C29.813 11.5882 32.8546 10.8412 33.3889 10.8945C33.7897 10.9265 34.0157 11.6629 34.0157 11.6629C34.92 11.0759 35.8859 10.3289 35.8859 10.3289C35.9886 10.2435 36.0195 10.1155 35.9886 10.0088L35.9373 9.76331H35.927Z" fill="#FA743E"/>
<path d="M31.5594 11.7695C31.2614 11.1078 30.871 11.396 30.0797 11.6308C27.4594 12.4632 21.2427 14.2774 18.4683 15.1952L19.763 18.7916C22.7018 17.2975 28.6206 14.4054 31.0148 13.0821C32.0218 12.5165 31.9088 12.4738 31.5903 11.7588H31.5697L31.5594 11.7695Z" fill="#F7DECE"/>
<path d="M16.9575 15.6861C16.9575 15.6861 16.2895 16.3798 16.7725 17.8632C17.2555 19.3465 18.0672 19.6347 18.0672 19.6347C18.0672 19.6347 18.7352 19.3252 19.7627 18.8023L19.0434 14.9924L16.9883 15.6754H16.9677L16.9575 15.6861Z" fill="#FA743E"/>
<path d="M12.8376 2.57057C12.7349 3.1255 14.8414 5.9322 15.1394 6.78595C16.4135 6.56184 17.2767 5.34525 17.585 4.99308C18.2426 4.20336 18.592 2.93341 17.6055 2.06899C17.5233 1.73816 17.4411 0.767024 15.2627 0.692321C14.2248 0.638962 13.0842 1.30062 12.8376 2.60258V2.57057Z" fill="#292F33"/>
<path d="M15.6836 2.0689C14.8308 2.20763 14.1629 1.82344 13.5258 2.12226C13.4949 2.0689 13.6593 1.82344 13.8443 1.70605C13.4744 1.70605 13.0428 2.12226 12.8578 2.4851C12.7551 2.65585 12.6934 2.86929 12.6729 3.06138C12.6215 3.49892 12.6215 3.77639 12.5393 3.84042C12.0563 4.20327 12.0563 4.64081 12.005 5.21709C11.9433 5.91076 11.82 6.15621 12.2927 6.48704C12.529 6.65779 14.8205 6.9566 15.139 6.47637C15.4576 5.99614 15.5398 5.95345 15.7145 5.94278C15.8994 6.18823 16.7934 6.02815 17.1325 5.71867C17.4305 5.45187 17.636 4.96097 17.3175 4.70484C16.8653 4.342 16.5057 4.54477 15.7556 5.11037C15.6528 5.19575 15.4884 4.77955 15.9919 4.13924C15.9919 4.13924 15.1185 3.09339 15.6734 2.0689H15.6836Z" fill="#F7DECE"/>
<path d="M12.8375 6.30548C13.0739 6.47623 13.4849 6.44421 13.3308 7.29796C13.2897 7.55408 13.1458 7.84222 12.9814 7.9276C12.7656 8.03432 12.7656 8.0023 12.7142 8.21574C12.6628 8.49321 13.4849 9.24024 13.7829 9.2936C14.0809 9.34695 15.4989 8.94142 15.6017 8.6106C15.6839 8.36514 15.1187 8.25843 15.3653 7.27662C15.5708 6.42287 15.8277 6.16674 16.3415 5.69718C15.9202 5.51576 12.3546 5.96398 12.8375 6.29481V6.30548Z" fill="#F7DECE"/>
<path d="M3.22945 35.92C3.35275 36.0267 3.50689 36.0267 3.6302 35.92L7.58632 32.2809C7.84321 32.0461 7.87404 31.6406 7.65825 31.3311C7.65825 31.3311 7.51439 31.1177 7.45273 30.9683C7.45273 30.9683 5.2743 33.2947 4.80162 33.5508C4.45225 33.7429 3.68157 33.2093 3.68157 33.2093C3.26027 34.3406 3.14724 34.8208 2.97256 35.3971C2.93145 35.5251 2.99311 35.6639 3.07531 35.7386L3.25 35.92H3.22945Z" fill="#FA743E"/>
</svg>
