<svg viewBox="0 0 36 36" fill="none" xmlns="http://www.w3.org/2000/svg">
<path d="M7.43182 30.6801C7.43182 30.6801 7.59623 30.4133 7.64761 30.3172C7.95588 29.7516 7.50375 29.2607 7.24686 29.09C6.94887 28.8765 6.40426 28.5564 5.84938 29.2394C5.70552 29.3994 5.35615 29.9117 5.26366 30.1145C4.80126 30.8935 4.05114 32.3662 3.68122 33.1986C3.45515 33.7322 2.96192 35.3864 2.96192 35.3864C2.93109 35.5144 2.96192 35.6318 3.04413 35.7385L3.19826 35.8879C3.31129 35.9947 3.49625 35.984 3.61956 35.9093L7.56541 32.2809C7.83257 32.0354 7.8634 31.6832 7.64761 31.3844C7.54486 31.235 7.31879 30.8828 7.42155 30.6907L7.43182 30.6801Z" fill="#F3D2A2"/>
<path d="M15.0673 19.0262L13.6287 17.4681C13.6287 17.4681 7.70993 26.2938 5.37736 29.9222C5.06909 30.4025 4.90468 31.1708 5.36708 31.5444C5.94252 32.0139 6.38437 31.7044 6.89815 31.1708C9.42596 28.6629 16.2079 21.1286 16.547 20.7444L15.057 18.9942L15.0776 19.0262H15.0673Z" fill="#F3D2A2"/>
<path d="M12.436 19.2824L15.4262 22.0144C16.125 21.2567 16.8032 20.6484 16.8032 20.6484L13.6383 17.4575L12.436 19.2717V19.2824Z" fill="#FA743E"/>
<path d="M10.7717 10.3609L7.03141 6.56167L3.26025 2.5277L3.97955 1.59924L8.3467 4.9929L11.3266 7.31937L10.7717 10.3609Z" fill="#F3D2A2"/>
<path d="M4.565 2.35513C4.71489 1.90381 3.87524 1.19365 2.68959 0.768933C1.50394 0.344218 0.421276 0.365782 0.271391 0.817098C0.121506 1.26841 0.961158 1.97858 2.14681 2.40329C3.33245 2.82801 4.41512 2.80644 4.565 2.35513Z" fill="#F3D2A2"/>
<path d="M27.7986 4.80066C27.1821 4.99275 24.5721 5.61172 22.1676 6.29472C19.5987 7.03108 17.5641 7.70341 17.5641 7.70341L16.3516 10.8409L22.5478 8.25835L28.1274 5.93188C27.9836 5.65441 27.9425 5.11014 27.7986 4.81133V4.80066Z" fill="#F3D2A2"/>
<path d="M29.1381 6.18271C30.3997 5.97754 31.3668 5.44303 31.2983 4.98884C31.2298 4.53465 30.1517 4.33277 28.8901 4.53794C27.6286 4.7431 26.6615 5.27762 26.73 5.73181C26.7984 6.186 27.8766 6.38787 29.1381 6.18271Z" fill="#F3D2A2"/>
<path d="M16.8037 20.6377L13.1456 19.4105C13.1456 19.4105 11.1932 17.4575 10.5767 14.6828C9.84711 11.3745 11.3268 7.31921 11.3268 7.31921L13.9265 7.94885L17.5641 7.71407C17.5641 7.71407 16.4338 10.8516 17.112 13.2101C17.7902 15.4192 19.0952 15.6326 19.0952 15.6326L18.0573 19.6559L16.7934 20.6484L16.8037 20.6377Z" fill="#FA743E"/>
<path d="M35.9272 9.76307C35.8758 9.60299 35.7422 9.51761 35.5881 9.54963L30.3681 10.4141C30.029 10.4674 29.8132 10.7876 29.8337 11.1611C29.8337 11.2251 29.8337 11.3532 29.8337 11.4065C29.8235 11.5986 29.8337 11.6947 29.618 11.7694C29.3611 11.9615 28.8062 12.1963 29.1453 13.0393C29.4022 13.6049 29.8235 13.6903 30.6558 13.2528C31.4367 12.8472 33.2144 12.2496 34.0776 11.5986C34.6016 11.2144 35.8758 10.3287 35.8758 10.3287C35.9786 10.2433 36.0094 10.1152 35.9786 10.0085L35.9272 9.76307Z" fill="#F3D2A2"/>
<path d="M35.927 9.76307C35.8756 9.60299 35.742 9.51761 35.5879 9.54963L30.3679 10.4141C30.0288 10.4674 29.7924 10.7982 29.8233 11.1718C29.8233 11.1718 29.8335 11.4279 29.813 11.588C29.813 11.588 32.8546 10.8409 33.3889 10.8943C33.7897 10.9263 34.0157 11.6627 34.0157 11.6627C34.92 11.0757 35.8859 10.3287 35.8859 10.3287C35.9886 10.2433 36.0195 10.1152 35.9886 10.0085L35.9373 9.76307H35.927Z" fill="#FA743E"/>
<path d="M31.5594 11.7694C31.2614 11.1077 30.871 11.3959 30.0797 11.6306C27.4594 12.463 21.2427 14.2773 18.4683 15.195L19.763 18.7915C22.7018 17.2974 28.6206 14.4053 31.0148 13.082C32.0218 12.5164 31.9088 12.4737 31.5903 11.7587H31.5697L31.5594 11.7694Z" fill="#F3D2A2"/>
<path d="M16.9575 15.6859C16.9575 15.6859 16.2895 16.3795 16.7725 17.8629C17.2555 19.3463 18.0672 19.6345 18.0672 19.6345C18.0672 19.6345 18.7352 19.325 19.7627 18.802L19.0434 14.9922L16.9883 15.6752H16.9677L16.9575 15.6859Z" fill="#FA743E"/>
<path d="M12.8376 2.57033C12.7349 3.12527 14.8414 5.93197 15.1394 6.78572C16.4135 6.56161 17.2767 5.34502 17.585 4.99284C18.2426 4.20313 18.592 2.93317 17.6055 2.06875C17.5233 1.73792 17.4411 0.76678 15.2627 0.692077C14.2248 0.638718 13.0842 1.30037 12.8376 2.60234V2.57033Z" fill="#FFE51E"/>
<path d="M15.6836 2.06878C14.8308 2.20751 14.1629 1.82332 13.5258 2.12214C13.4949 2.06878 13.6593 1.82332 13.8443 1.70593C13.4744 1.70593 13.0428 2.12214 12.8578 2.48498C12.7551 2.65573 12.6934 2.86917 12.6729 3.06126C12.6215 3.49881 12.6215 3.77628 12.5393 3.84031C12.0563 4.20315 12.0563 4.6407 12.005 5.21698C11.9433 5.91065 11.82 6.15611 12.2927 6.48693C12.529 6.65768 14.8205 6.9565 15.139 6.47626C15.4576 5.99603 15.5398 5.95334 15.7145 5.94267C15.8994 6.18812 16.7934 6.02804 17.1325 5.71856C17.4305 5.45176 17.636 4.96086 17.3175 4.70473C16.8653 4.34189 16.5057 4.54465 15.7556 5.11026C15.6528 5.19564 15.4884 4.77943 15.9919 4.13912C15.9919 4.13912 15.1185 3.09328 15.6734 2.06878H15.6836Z" fill="#F3D2A2"/>
<path d="M12.8375 6.30548C13.0739 6.47623 13.4849 6.44421 13.3308 7.29796C13.2897 7.55409 13.1458 7.84223 12.9814 7.92761C12.7656 8.03432 12.7656 8.00231 12.7142 8.21575C12.6628 8.49322 13.4849 9.24025 13.7829 9.29361C14.0809 9.34697 15.4989 8.94143 15.6017 8.61061C15.6839 8.36515 15.1187 8.25843 15.3653 7.27662C15.5708 6.42287 15.8277 6.16675 16.3415 5.69718C15.9202 5.51576 12.3546 5.96398 12.8375 6.29481V6.30548Z" fill="#F3D2A2"/>
<path d="M3.22945 35.9199C3.35275 36.0266 3.50689 36.0266 3.6302 35.9199L7.58632 32.2808C7.84321 32.046 7.87404 31.6405 7.65825 31.331C7.65825 31.331 7.51439 31.1175 7.45273 30.9681C7.45273 30.9681 5.2743 33.2946 4.80162 33.5507C4.45225 33.7428 3.68157 33.2092 3.68157 33.2092C3.26027 34.3405 3.14724 34.8207 2.97256 35.397C2.93145 35.525 2.99311 35.6638 3.07531 35.7385L3.25 35.9199H3.22945Z" fill="#FA743E"/>
</svg>
