<svg viewBox="0 0 36 36" fill="none" xmlns="http://www.w3.org/2000/svg">
<path d="M7.43234 30.6801C7.43234 30.6801 7.59675 30.4133 7.64813 30.3172C7.9564 29.7516 7.50427 29.2607 7.24738 29.09C6.94938 28.8765 6.40477 28.5564 5.84988 29.2394C5.70602 29.3994 5.35665 29.9117 5.26417 30.1145C4.80176 30.8935 4.05163 32.3662 3.68171 33.1986C3.45564 33.7322 2.96241 35.3864 2.96241 35.3864C2.93158 35.5144 2.96241 35.6318 3.04462 35.7385L3.19875 35.8879C3.31178 35.9947 3.49675 35.984 3.62005 35.9093L7.56592 32.2809C7.83309 32.0354 7.86392 31.6832 7.64813 31.3844C7.54537 31.235 7.31931 30.8828 7.42206 30.6907L7.43234 30.6801Z" fill="#7C533E"/>
<path d="M15.0673 19.0264L13.6287 17.4683C13.6287 17.4683 7.70994 26.2939 5.37736 29.9223C5.06909 30.4026 4.90468 31.1709 5.36708 31.5445C5.94252 32.014 6.38438 31.7045 6.89816 31.1709C9.42599 28.6631 16.2079 21.1287 16.547 20.7445L15.0571 18.9943L15.0776 19.0264H15.0673Z" fill="#7C533E"/>
<path d="M12.4365 19.2824L15.4268 22.0144C16.1255 21.2567 16.8037 20.6484 16.8037 20.6484L13.6388 17.4575L12.4365 19.2717V19.2824Z" fill="#FA743E"/>
<path d="M10.7728 10.3609L7.03241 6.56166L3.26123 2.5277L3.98053 1.59924L8.3477 4.9929L11.3277 7.31937L10.7728 10.3609Z" fill="#7C533E"/>
<path d="M4.56503 2.35525C4.71492 1.90393 3.87526 1.19377 2.6896 0.769056C1.50395 0.34434 0.421279 0.365905 0.271393 0.81722C0.121507 1.26854 0.961163 1.9787 2.14682 2.40341C3.33247 2.82813 4.41514 2.80657 4.56503 2.35525Z" fill="#7C533E"/>
<path d="M27.7992 4.80066C27.1826 4.99275 24.5726 5.61172 22.1681 6.29472C19.5992 7.03108 17.5646 7.70341 17.5646 7.70341L16.3521 10.8409L22.5483 8.25835L28.128 5.93188C27.9841 5.65441 27.943 5.11014 27.7992 4.81133V4.80066Z" fill="#7C533E"/>
<path d="M29.1386 6.18258C30.4002 5.97742 31.3673 5.4429 31.2988 4.98871C31.2304 4.53452 30.1522 4.33265 28.8906 4.53782C27.6291 4.74298 26.662 5.2775 26.7304 5.73169C26.7989 6.18588 27.8771 6.38775 29.1386 6.18258Z" fill="#7C533E"/>
<path d="M16.8038 20.6378L13.1456 19.4106C13.1456 19.4106 11.1932 17.4576 10.5767 14.6829C9.8471 11.3746 11.3268 7.31934 11.3268 7.31934L13.9266 7.94898L17.5642 7.7142C17.5642 7.7142 16.4338 10.8517 17.112 13.2102C17.7902 15.4193 19.0952 15.6327 19.0952 15.6327L18.0574 19.656L16.7935 20.6485L16.8038 20.6378Z" fill="#FA743E"/>
<path d="M35.9272 9.76331C35.8759 9.60323 35.7423 9.51786 35.5881 9.54987L30.3681 10.4143C30.029 10.4677 29.8132 10.7878 29.8338 11.1613C29.8338 11.2254 29.8338 11.3534 29.8338 11.4068C29.8235 11.5989 29.8337 11.6949 29.618 11.7696C29.3611 11.9617 28.8062 12.1965 29.1453 13.0396C29.4022 13.6052 29.8235 13.6906 30.6558 13.253C31.4368 12.8475 33.2145 12.2499 34.0776 11.5989C34.6017 11.2147 35.8759 10.3289 35.8759 10.3289C35.9786 10.2435 36.0094 10.1155 35.9786 10.0088L35.9272 9.76331Z" fill="#7C533E"/>
<path d="M35.927 9.76331C35.8757 9.60323 35.7421 9.51786 35.5879 9.54987L30.3679 10.4143C30.0288 10.4677 29.7924 10.7985 29.8233 11.172C29.8233 11.172 29.8335 11.4281 29.813 11.5882C29.813 11.5882 32.8546 10.8412 33.3889 10.8945C33.7897 10.9265 34.0157 11.6629 34.0157 11.6629C34.92 11.076 35.8859 10.3289 35.8859 10.3289C35.9887 10.2435 36.0195 10.1155 35.9887 10.0088L35.9373 9.76331H35.927Z" fill="#FA743E"/>
<path d="M31.56 11.7695C31.262 11.1078 30.8715 11.396 30.0803 11.6308C27.46 12.4632 21.2432 14.2774 18.4688 15.1952L19.7635 18.7916C22.7023 17.2975 28.6211 14.4054 31.0154 13.0821C32.0224 12.5165 31.9094 12.4738 31.5908 11.7588H31.5703L31.56 11.7695Z" fill="#7C533E"/>
<path d="M16.958 15.686C16.958 15.686 16.29 16.3797 16.773 17.863C17.256 19.3464 18.0677 19.6346 18.0677 19.6346C18.0677 19.6346 18.7357 19.3251 19.7632 18.8022L19.0439 14.9923L16.9888 15.6753H16.9682L16.958 15.686Z" fill="#FA743E"/>
<path d="M12.8381 2.57045C12.7354 3.12539 14.8419 5.93209 15.1399 6.78584C16.4141 6.56173 17.2772 5.34514 17.5855 4.99296C18.2431 4.20325 18.5925 2.93329 17.606 2.06887C17.5238 1.73804 17.4416 0.766903 15.2632 0.692199C14.2253 0.63884 13.0847 1.3005 12.8381 2.60246V2.57045Z" fill="#0B0200"/>
<path d="M15.6837 2.06878C14.8308 2.20751 14.1629 1.82332 13.5258 2.12214C13.4949 2.06878 13.6594 1.82332 13.8443 1.70593C13.4744 1.70593 13.0428 2.12214 12.8579 2.48498C12.7551 2.65573 12.6934 2.86917 12.6729 3.06126C12.6215 3.49881 12.6215 3.77628 12.5393 3.84031C12.0563 4.20315 12.0563 4.6407 12.005 5.21698C11.9433 5.91065 11.82 6.1561 12.2927 6.48693C12.529 6.65768 14.8205 6.95649 15.1391 6.47626C15.4576 5.99603 15.5398 5.95334 15.7145 5.94267C15.8995 6.18812 16.7934 6.02804 17.1325 5.71856C17.4305 5.45176 17.6361 4.96085 17.3175 4.70473C16.8654 4.34189 16.5057 4.54465 15.7556 5.11026C15.6528 5.19564 15.4884 4.77943 15.9919 4.13912C15.9919 4.13912 15.1185 3.09328 15.6734 2.06878H15.6837Z" fill="#7C533E"/>
<path d="M12.8375 6.30548C13.0739 6.47623 13.4849 6.44421 13.3308 7.29796C13.2897 7.55409 13.1458 7.84223 12.9814 7.9276C12.7656 8.03432 12.7656 8.00231 12.7142 8.21575C12.6628 8.49321 13.4849 9.24025 13.7829 9.2936C14.0809 9.34696 15.4989 8.94143 15.6017 8.6106C15.6839 8.36515 15.1187 8.25843 15.3653 7.27662C15.5709 6.42287 15.8278 6.16675 16.3415 5.69718C15.9202 5.51576 12.3546 5.96398 12.8375 6.29481V6.30548Z" fill="#7C533E"/>
<path d="M3.22994 35.92C3.35324 36.0267 3.50738 36.0267 3.63069 35.92L7.58683 32.2809C7.84373 32.0461 7.87455 31.6406 7.65876 31.3311C7.65876 31.3311 7.5149 31.1177 7.45325 30.9683C7.45325 30.9683 5.2748 33.2947 4.80212 33.5509C4.45274 33.7429 3.68207 33.2094 3.68207 33.2094C3.26076 34.3406 3.14773 34.8208 2.97304 35.3971C2.93194 35.5252 2.9936 35.6639 3.0758 35.7386L3.25049 35.92H3.22994Z" fill="#FA743E"/>
</svg>
