<svg viewBox="0 0 36 36" fill="none" xmlns="http://www.w3.org/2000/svg">
<path d="M7.43193 30.6801C7.43193 30.6801 7.59635 30.4133 7.64773 30.3172C7.956 29.7516 7.50386 29.2607 7.24697 29.09C6.94897 28.8765 6.40434 28.5564 5.84945 29.2394C5.70558 29.3994 5.3562 29.9117 5.26372 30.1145C4.80131 30.8935 4.05117 32.3662 3.68123 33.1986C3.45516 33.7322 2.96192 35.3864 2.96192 35.3864C2.93109 35.5144 2.96192 35.6318 3.04413 35.7385L3.19827 35.8879C3.3113 35.9946 3.49627 35.984 3.61958 35.9093L7.56552 32.2808C7.83269 32.0354 7.86352 31.6832 7.64773 31.3844C7.54497 31.235 7.3189 30.8828 7.42166 30.6907L7.43193 30.6801Z" fill="#FFDC5D"/>
<path d="M15.067 19.0265L13.6284 17.4684C13.6284 17.4684 7.7095 26.294 5.37688 29.9224C5.0686 30.4027 4.90419 31.171 5.3666 31.5446C5.94205 32.0141 6.38391 31.7046 6.89771 31.171C9.42558 28.6632 16.2077 21.1288 16.5468 20.7446L15.0568 18.9945L15.0773 19.0265H15.067Z" fill="#FFDC5D"/>
<path d="M12.4365 19.2825L15.4268 22.0145C16.1256 21.2568 16.8038 20.6485 16.8038 20.6485L13.6388 17.4576L12.4365 19.2719V19.2825Z" fill="#FA743E"/>
<path d="M10.7719 10.361L7.0315 6.56177L3.26025 2.52782L3.97957 1.59937L8.34682 4.99301L11.3268 7.31948L10.7719 10.361Z" fill="#FFDC5D"/>
<path d="M4.56511 2.35525C4.715 1.90393 3.87533 1.19377 2.68965 0.769058C1.50398 0.344344 0.421286 0.365908 0.271398 0.817222C0.121509 1.26854 0.961181 1.9787 2.14686 2.40341C3.33253 2.82813 4.41522 2.80656 4.56511 2.35525Z" fill="#FFDC5D"/>
<path d="M27.7989 4.8009C27.1823 4.993 24.5723 5.61196 22.1677 6.29496C19.5987 7.03132 17.5641 7.70365 17.5641 7.70365L16.3516 10.8412L22.5479 8.25858L28.1277 5.93212C27.9839 5.65465 27.9428 5.11039 27.7989 4.81158V4.8009Z" fill="#FFDC5D"/>
<path d="M29.1382 6.18282C30.3998 5.97766 31.3669 5.44315 31.2984 4.98896C31.2299 4.53477 30.1517 4.3329 28.8902 4.53806C27.6286 4.74323 26.6615 5.27774 26.73 5.73193C26.7984 6.18612 27.8767 6.38799 29.1382 6.18282Z" fill="#FFDC5D"/>
<path d="M16.8034 20.6379L13.1452 19.4107C13.1452 19.4107 11.1927 17.4577 10.5762 14.683C9.8466 11.3748 11.3263 7.31946 11.3263 7.31946L13.9261 7.9491L17.5638 7.71432C17.5638 7.71432 16.4334 10.8518 17.1117 13.2103C17.7899 15.4194 19.0949 15.6328 19.0949 15.6328L18.057 19.6561L16.7931 20.6486L16.8034 20.6379Z" fill="#FA743E"/>
<path d="M35.9269 9.76307C35.8755 9.60299 35.7419 9.51761 35.5878 9.54963L30.3676 10.414C30.0285 10.4674 29.8127 10.7876 29.8333 11.1611C29.8333 11.2251 29.8333 11.3532 29.8333 11.4065C29.823 11.5986 29.8333 11.6947 29.6175 11.7694C29.3606 11.9615 28.8057 12.1962 29.1448 13.0393C29.4017 13.6049 29.823 13.6903 30.6553 13.2528C31.4363 12.8472 33.214 12.2496 34.0772 11.5986C34.6013 11.2144 35.8755 10.3287 35.8755 10.3287C35.9783 10.2433 36.0091 10.1152 35.9783 10.0085L35.9269 9.76307Z" fill="#FFDC5D"/>
<path d="M35.9271 9.76307C35.8758 9.60299 35.7422 9.51761 35.588 9.54963L30.3679 10.414C30.0288 10.4674 29.7924 10.7982 29.8233 11.1718C29.8233 11.1718 29.8335 11.4279 29.813 11.588C29.813 11.588 32.8547 10.8409 33.389 10.8943C33.7898 10.9263 34.0158 11.6627 34.0158 11.6627C34.9201 11.0757 35.886 10.3287 35.886 10.3287C35.9888 10.2433 36.0196 10.1152 35.9888 10.0085L35.9374 9.76307H35.9271Z" fill="#FA743E"/>
<path d="M31.5597 11.7695C31.2617 11.1078 30.8713 11.396 30.08 11.6308C27.4597 12.4632 21.2428 14.2774 18.4683 15.1952L19.763 18.7916C22.7019 17.2975 28.6208 14.4054 31.0151 13.0821C32.0222 12.5165 31.9091 12.4738 31.5906 11.7588H31.57L31.5597 11.7695Z" fill="#FFDC5D"/>
<path d="M16.9575 15.6861C16.9575 15.6861 16.2895 16.3798 16.7725 17.8632C17.2555 19.3465 18.0673 19.6347 18.0673 19.6347C18.0673 19.6347 18.7352 19.3252 19.7628 18.8023L19.0435 14.9924L16.9883 15.6754H16.9678L16.9575 15.6861Z" fill="#FA743E"/>
<path d="M12.8371 2.57057C12.7344 3.1255 14.8409 5.9322 15.1389 6.78595C16.4131 6.56184 17.2763 5.34525 17.5846 4.99308C18.2423 4.20336 18.5916 2.93341 17.6051 2.06899C17.5229 1.73816 17.4407 0.767024 15.2622 0.692321C14.2244 0.638962 13.0838 1.30062 12.8371 2.60258V2.57057Z" fill="#FFAC33"/>
<path d="M15.6833 2.0689C14.8304 2.20763 14.1624 1.82344 13.5253 2.12226C13.4945 2.0689 13.6589 1.82344 13.8439 1.70605C13.4739 1.70605 13.0423 2.12226 12.8574 2.4851C12.7546 2.65585 12.693 2.86929 12.6724 3.06138C12.621 3.49892 12.621 3.77639 12.5388 3.84042C12.0559 4.20327 12.0559 4.64081 12.0045 5.21709C11.9428 5.91076 11.8195 6.15621 12.2922 6.48704C12.5286 6.65779 14.8201 6.9566 15.1386 6.47637C15.4572 5.99614 15.5394 5.95345 15.7141 5.94278C15.899 6.18823 16.793 6.02815 17.1322 5.71867C17.4302 5.45187 17.6357 4.96097 17.3171 4.70484C16.865 4.342 16.5053 4.54477 15.7552 5.11037C15.6524 5.19575 15.488 4.77955 15.9915 4.13924C15.9915 4.13924 15.1181 3.09339 15.673 2.0689H15.6833Z" fill="#FFDC5D"/>
<path d="M12.837 6.30548C13.0734 6.47623 13.4844 6.44421 13.3303 7.29796C13.2892 7.55408 13.1453 7.84222 12.9809 7.9276C12.7651 8.03432 12.7651 8.0023 12.7137 8.21574C12.6623 8.49321 13.4844 9.24024 13.7824 9.2936C14.0804 9.34695 15.4985 8.94142 15.6013 8.6106C15.6835 8.36514 15.1183 8.25843 15.3649 7.27662C15.5704 6.42287 15.8273 6.16674 16.3411 5.69718C15.9198 5.51576 12.3541 5.96398 12.837 6.29481V6.30548Z" fill="#FFDC5D"/>
<path d="M3.22945 35.92C3.35276 36.0267 3.5069 36.0267 3.63021 35.92L7.58643 32.2809C7.84333 32.0461 7.87415 31.6406 7.65836 31.3311C7.65836 31.3311 7.5145 31.1177 7.45284 30.9683C7.45284 30.9683 5.27435 33.2947 4.80166 33.5508C4.45228 33.7429 3.68159 33.2093 3.68159 33.2093C3.26028 34.3406 3.14725 34.8208 2.97256 35.3971C2.93145 35.5251 2.99311 35.6639 3.07531 35.7386L3.25 35.92H3.22945Z" fill="#FA743E"/>
</svg>
