<?xml version="1.0" encoding="UTF-8"?>
<svg id="Layer_1" xmlns="http://www.w3.org/2000/svg" version="1.1" viewBox="0 0 36 36">
  <!-- Generator: Adobe Illustrator 29.6.0, SVG Export Plug-In . SVG Version: 2.1.1 Build 207)  -->
  <defs>
    <style>
      .st0 {
        fill: #4f4f4f;
      }

      .st1 {
        fill: #558956;
      }

      .st2 {
        fill: #5386dc;
      }

      .st3 {
        fill: #f8c34a;
      }

      .st4 {
        fill: #9f5c3a;
      }

      .st5 {
        fill: #636363;
      }

      .st6 {
        fill: #664333;
      }

      .st7 {
        fill: #f6c24b;
      }

      .st8 {
        fill: #d33b2f;
      }

      .st9 {
        fill: #d89636;
      }

      .st10 {
        fill: #c77e61;
      }

      .st11 {
        fill: #9e9e9e;
      }

      .st12 {
        fill: #c88433;
      }

      .st13 {
        fill: #7f7f7f;
      }

      .st14 {
        fill: #b6b6b6;
      }
    </style>
  </defs>
  <path class="st14" d="M32.06,21.45l-16.89-6.19v-1.49l17.04,6.23-.15,1.45Z"/>
  <path class="st6" d="M28.33,17.39l-13.37-4.22-7.3-4.74,19.31,5.45,1.36,3.51Z"/>
  <path class="st14" d="M12.92,16.28L1.41,20.78v-2.26l11.51-4.5v2.26Z"/>
  <path class="st0" d="M32.95,20.14l-18.56-6.1L3.58,7.54l.42.05,10.49,6.32,18.41,5.98.05.25Z"/>
  <path class="st5" d="M32.98,20.09l-18.49-6.08L4,7.62l1.12-1.34,10.29,6.25,17.99,5.73-.42,1.83Z"/>
  <path class="st0" d="M32.95,20.14l-11.25-6.91L3.6,7.56l-.59-.39,18.77,5.87,11.5,7.09h-.33Z"/>
  <path class="st14" d="M12.93,16.29L1.42,20.79v-2.27l11.51-4.49v2.26Z"/>
  <path class="st4" d="M5.95,18.8l-1.89.69-1.84-.59,2.13-.9,1.6.8Z"/>
  <path class="st7" d="M30.55,19.89c.1-.42.09-.99-.08-1.59-.3-1.09-.97-1.86-1.49-1.72-.22.06-.38.27-.47.56l-2.57-1.6-1.02.19h-.02c-.37-.22-.96-.38-1.63-.38-.31,0-.61.04-.87.1-.07-.47-.66-1.07-1.5-1.44-.95-.43-1.88-.44-2.2-.05h-.31v-.09c-.11-.53-1.09-.79-2.2-.57-.45.09-.86.24-1.17.44-.41-.21-1.08-.27-1.81-.12-.7.14-1.29.44-1.6.78-.41-.16-1.02-.19-1.66-.06-1.11.22-1.94.84-1.82,1.37.06.24.07.29.15.6l-.89.24c-.41-.14-.96-.17-1.56-.07-1.11.19-1.95.76-1.87,1.31l.16.63c-.35.29-.53.61-.45.9.15.54,1.22,1.2,2.31.9.11-.03.21-.06.31-.1v1.12l9.61,2.94v.05l.46.09,2.76.84,10.13-3.78.11-.39,2.17-.76-.98-.33h0Z"/>
  <path class="st9" d="M30.55,19.89c.1-.42.09-.99-.08-1.59-.3-1.09-.97-1.86-1.49-1.72-.22.06-.38.27-.47.56l-2.57-1.6-1.02.19h-.02c-.37-.22-.96-.38-1.63-.38-.31,0-.61.04-.87.1-.07-.47-.66-1.07-1.5-1.44-.95-.43-1.88-.44-2.2-.05h-.31v-.09c-.11-.53-1.09-.79-2.2-.57-.45.09-.86.24-1.17.44-.41-.21-1.08-.27-1.81-.12-.7.14-1.29.44-1.6.78-.41-.16-1.02-.19-1.66-.06-.7.14-1.29.44-1.6.77l20.01,6.62.9-.34.11-.39,2.17-.76-.98-.33v-.02Z"/>
  <path class="st8" d="M21.45,15.83c.14.51-.45.83-.98,1.02-.64.21-1.36.18-1.47-.3-.13-.51.24-1.06.92-1.25.68-.19,1.4.03,1.54.54h-.01Z"/>
  <path class="st12" d="M26.99,19.89s0-.08-.08-.07c-.06,0-.07.04-.08.08-.17.46-.96.84-1.94.98h-.07s-.07,0-.11.01l-.46.8c.21,0,.43-.01.67-.04.02,0,.08-.01.1-.01,1.25-.18,2.1-.71,2.06-1.12-.01-.11-.04-.41-.08-.64h-.01Z"/>
  <path class="st12" d="M26.34,16.85c-.26.42-1.11.64-2.1.58h-.07c-.91-.06-1.56-.4-1.85-.81-.01-.02-.02-.04-.07-.05-.07,0-.07.03-.07.04-.02.23-.02.53-.03.64-.01.41.81.87,1.97.94h.1c1.26.08,2.21-.28,2.24-.69,0-.11.04-.41.05-.64,0-.03.01-.08-.06-.08-.06,0-.07.03-.1.07h-.01Z"/>
  <path class="st12" d="M19.07,22.52c-.26.42-1.11.64-2.1.58h-.07c-.91-.06-1.56-.4-1.85-.81-.01-.02-.02-.04-.07-.05-.07,0-.07.03-.07.04-.02.23-.02.53-.03.64-.01.41.81.87,1.97.94h.1c1.26.08,2.21-.28,2.24-.69,0-.11.04-.41.05-.64,0-.03.01-.08-.06-.08-.06,0-.07.03-.1.07h-.01Z"/>
  <path class="st2" d="M23.32,21.56c-.24.28-.61.44-.99.42l-2.59-.35c-.19,0-.11-.23.02-.36l1.02-1.52c.23-.25.57-.39.93-.39l2.31.18c.19,0,.46,0,.31.25l-1,1.78h-.01Z"/>
  <path class="st12" d="M20.31,18.05c-.12.48-.87.94-1.82,1.19l-.07.02c-.88.22-1.61.09-2.01-.21-.02,0-.03-.04-.08-.02-.06.01-.06.05-.06.07.05.23.14.51.17.62.11.39,1.04.58,2.16.3l.1-.03c1.22-.31,2.01-.94,1.93-1.34-.02-.11-.08-.4-.15-.63,0-.03-.01-.08-.08-.06-.06.01-.06.05-.07.09h-.02Z"/>
  <path class="st1" d="M11.09,18.75c.09.42-.56.92-1.44.99-.88.07-1.78-.31-1.92-.73-.19-.59.48-1.13,1.42-1.21.94-.08,1.82.43,1.93.94h.01Z"/>
  <path class="st14" d="M33.07,20.29l-13.76,4.96L.46,18.89l.94-.38,17.95,5.85,12.73-4.41.99.34Z"/>
  <path class="st10" d="M18.58,33.63L2.45,27.88l-.37-6.66,16.53,5.08-.03,7.33Z"/>
  <path class="st4" d="M31.26,29.3l-10.68,4.46.13-7.23,10.89-3.9-.34,6.67Z"/>
  <path class="st5" d="M2.74,29l-1.12-.5.6-.99,1.61.93-1.09.56Z"/>
  <path class="st5" d="M10.61,30.7l-.95-.23.16-6.74.58.43.21,6.54Z"/>
  <path class="st5" d="M20.78,35.13l-1.34.66v-8.92l1.46-.48-.12,8.74Z"/>
  <path class="st5" d="M31.74,31l-1.1.29.68-8.66,1.22-.24-.8,8.61Z"/>
  <path class="st5" d="M31.19,29.99l-10.63,4.69.09-1.34,10.57-4.54-.03,1.19Z"/>
  <path class="st5" d="M2.92,27.43l-1.02-.22-.05-6.35.56.07.51,6.5Z"/>
  <path class="st14" d="M8.92,29.7l-6.29-2.45.27-.09,6.27,2.39-.25.15Z"/>
  <path class="st14" d="M18.29,33.33l-8.09-3.12.4-.12,7.9,3.02-.21.22Z"/>
  <path class="st13" d="M30.74,29l-9.93,4.26v-.22s9.76-4.14,9.76-4.14l.17.1Z"/>
  <path class="st11" d="M19.45,35.16L1.61,27.97l-.12-1.15,17.96,6.96v1.38Z"/>
  <path class="st11" d="M19.3,27.39L.64,20.78l-.2-1.9,18.87,6.37v2.14Z"/>
  <path class="st11" d="M2.74,29l-1.12-.5-.79-8.32,1.29.78.62,8.04Z"/>
  <path class="st11" d="M19.44,35.83l-1.19-.51-.05-8.35,1.28-.33-.04,9.19Z"/>
  <path class="st11" d="M10.2,30.29l-1.26-.18-.25-6.53,1.3.43.21,6.28Z"/>
  <path class="st5" d="M19.3,27.39v-2.13s13.78-4.97,13.78-4.97l-.22,2.03-13.56,5.07Z"/>
  <path class="st14" d="M16.53,10.88c-.17.34-3.48-.87-6.46-1.97-2.98-1.1-6.1-2.67-5.79-3.2.37-.63,1.07-2.38,3.17-4.03,2.44-1.91,5.06-1.95,7.36-.37,2.61,1.78,4,5.09,1.72,9.58h0Z"/>
  <path class="st5" d="M17.95,11.1c-.17.34-3.13-1.01-5.92-1.89-2.93-.91-6.5-2.44-6.19-2.96.37-.63,1.07-2.38,3.17-4.03,2.44-1.91,5.06-1.95,7.36-.37,2.61,1.78,3.87,4.76,1.58,9.25Z"/>
  <path class="st10" d="M18.14,11.17c-.16.35-2.97-.74-5.85-1.76-2.88-1.02-6.51-2.37-6.2-2.9.37-.63,1.45-2.83,3.15-4.04,1.84-1.32,3.12-1.66,4.95-1.23,1.56.36,2.53.75,4.12,1.22,3.2.95,1.21,5.8-.17,8.71Z"/>
  <path class="st14" d="M24.25,13.92c-.17.34-2.71-1.65-5.7-2.68-2.99-1.03-6.85-2.69-6.55-3.21.37-.63,1.07-2.38,3.17-4.03,2.44-1.91,5.06-1.95,7.36-.37,2.61,1.78,4,5.81,1.72,10.3h0Z"/>
  <path class="st5" d="M25.67,14.52c-.17.34-3.02-1.89-5.95-2.88-2.93-.99-6.47-2.54-6.17-3.07.37-.63,1.07-2.38,3.17-4.03,2.44-1.91,5.06-1.95,7.36-.37,2.61,1.78,3.87,5.87,1.58,10.35h0Z"/>
  <path class="st10" d="M25.86,13.49c-.16.35-2.97-.74-5.85-1.76-2.9-1.02-6.51-2.37-6.2-2.9.37-.63,1.45-2.83,3.15-4.04,1.84-1.32,3.12-1.66,4.95-1.23,1.56.36,3.44,1.12,6.74,2.23.87.29-1.41,4.79-2.78,7.69h0Z"/>
  <path class="st14" d="M3.01,7.17l.82-1.62,18.68,5.79-.73,1.71L3.01,7.17Z"/>
  <path class="st14" d="M32.59,17.89c-.16.32-3.65-1.65-6.27-3.23-2.63-1.59-5.52-3.43-5.24-3.92.35-.6.99-2.25,3.02-3.78,2.35-1.77,4.93-1.74,7.24-.17,2.62,1.77,3.38,6.87,1.24,11.11h.01Z"/>
  <path class="st5" d="M34.07,18.51c-.16.32-3.65-1.65-6.27-3.23-2.63-1.59-5.52-3.43-5.24-3.92.35-.6.99-2.25,3.02-3.78,2.35-1.77,4.93-1.74,7.24-.17,2.62,1.77,3.38,6.87,1.24,11.11h.01Z"/>
  <path class="st4" d="M33.53,18.22c-.16.3-3.32-1.49-5.69-2.92-2.39-1.44-5.01-3.11-4.74-3.58.33-.56.94-2.12,2.82-3.57,2.18-1.69,4.54-1.7,6.64-.27,2.37,1.61,2.99,6.35.97,10.34Z"/>
  <path class="st5" d="M21.77,13.04l.77-1.71,11.58,7.18-.83,1.63-11.52-7.1Z"/>
  <path class="st12" d="M33.12,30.55c-.46,0-.88.08-1.24.22-.27-.07-.56-.1-.87-.1-1.28,0-2.32.63-2.32,1.41v.13c-1.08.12-1.9.7-1.9,1.39,0,.78,1.04,1.41,2.32,1.41s2.32-.63,2.32-1.41c0-.04,0-.09-.01-.13.3-.03.58-.1.83-.2.27.07.56.1.87.1,1.28,0,2.32-.63,2.32-1.41s-1.04-1.41-2.32-1.41Z"/>
  <path class="st3" d="M35.18,31.32c-.39-.46-1.16-.77-2.07-.77-.46,0-.88.08-1.24.22.49.12.9.35,1.15.62-.03-.04-.07-.07-.1-.1-.36.5-1.17.85-2.13.85-.75,0-1.42-.22-1.84-.56,0,.02-.01.04-.01.06,0,.2.13.39.34.55h-.17c-.81,0-1.53.26-1.94.64-.07.1-.12.21-.12.33,0,.55.93,1,2.08,1s2.08-.45,2.08-1c0-.07-.01-.14-.04-.2-.1-.12-.22-.22-.36-.32h.21c1.15,0,2.08-.45,2.08-1,0-.07,0-.13-.04-.2.16.19.25.41.25.64,0,.16-.04.3-.12.44,1.12,0,2.02-.46,2.02-1,0-.07-.01-.14-.04-.2h0Z"/>
  <path class="st12" d="M33.79,29.67c0-.78-1.04-1.41-2.32-1.41s-2.32.63-2.32,1.41v.06c-.42.26-.68.61-.68,1,0,.78,1.04,1.41,2.32,1.41s2.32-.63,2.32-1.41v-.06c.42-.26.68-.61.68-1Z"/>
  <path class="st3" d="M31.47,31.08c-1.24,0-2.26-.6-2.31-1.35-.11.07-.21.14-.3.22-.07.1-.12.21-.12.33,0,.55.93,1,2.08,1,.59,0,1.12-.12,1.5-.31-.26.06-.55.1-.85.1h0Z"/>
  <path class="st3" d="M33.54,29.03c-.39-.46-1.16-.77-2.07-.77-.81,0-1.53.26-1.94.64-.07.1-.12.21-.12.33,0,.55.93,1,2.08,1s2.08-.45,2.08-1c0-.07-.01-.14-.04-.2h0Z"/>
  <path class="st12" d="M3.68,33.14c1.28,0,2.32-.63,2.32-1.41s-1.04-1.41-2.32-1.41-2.32.63-2.32,1.41,1.04,1.41,2.32,1.41Z"/>
  <path class="st3" d="M5.74,31.09c-.39-.46-1.16-.77-2.07-.77-.81,0-1.53.26-1.94.64-.07.1-.12.21-.12.33,0,.55.93,1,2.08,1s2.08-.45,2.08-1c0-.07,0-.14-.04-.2h.01Z"/>
</svg>