<svg xmlns="http://www.w3.org/2000/svg" xmlns:xlink="http://www.w3.org/1999/xlink" width="512pt" height="512pt" version="1.1" viewBox="0 0 512 512">
    <path d="M65.14,85.95C13.42,144.72-7.42,213.56,2.33,291.3,6.65,325.69,17.47,358,36.12,387.49c0.52,0.82,1.22,1.53,2.21,2.76,0.88-14.91,4.78-28.06,13.45-39.48,15-19.68,35.1-30.34,59.41-33,9.68-1.06,19.5-.93,29.67-1.36a88,88,0,0,1-13.5-23.52c-15.54-39.51-19.7-80.09-9.5-121.47,12-48.75,40.3-85.16,85.8-107,39.69-19.06,80.8-20.14,122.45-6.73,20.61,6.63,39.27,16.76,54.89,32,36.38,35.54,51.18,89.44,37.3,138.35-8.83,31.12-27.5,54.49-57.43,68-16.43,7.39-33.86,9-51.69,8.48-19.17-.56-35.94-7.11-50.93-18.8a54,54,0,0,1-17.65-23.59,95.49,95.49,0,0,1-5.95-26.15c-1.29-14.79-.26-29.27,4.86-43.41,2.26-6.25,6.68-8.5,12.55-9a23.83,23.83,0,0,1,6.29.64c6.76,1.24,13.53,2.32,20.42,1.3,7.48-1.11,13.2-4.55,15.61-12.2a26.46,26.46,0,0,0,.91-14c-2.89-12.85-11.35-20.25-23.7-23.36-11.32-2.85-22.41-.94-33.14,3-19.66,7.18-33.54,21.06-43.46,39a121.14,121.14,0,0,0-14.17,77.57c2.81,19.44,9,37.86,20.75,53.85C226.27,343,260,360,301.42,361.83c31.39,1.41,61.71-4.43,91.25-14.61,30.4-10.48,59-24.55,85-43.63,11.49-8.43,22.06-17.85,30.79-29.22a15,15,0,0,0,3.31-8.93,245.34,245.34,0,0,0-3.7-54.1c-10.51-57.5-37-106.47-80.69-145.32C365.78,11.2,293.52-9.44,212.31,4,153.78,13.61,104.32,41.42,65.14,85.95Z" fill="#FFFFFF"/>
    <path d="M505.48,310.21A206.92,206.92,0,0,1,475.81,335a373,373,0,0,1-96.61,47.72c-27,8.81-54.66,13.5-83.21,12.92a182.54,182.54,0,0,1-89-24.74c-8.05-4.65-16-9.47-24.13-14-18.22-10.14-37.59-15.34-58.64-13.74-22.56,1.72-40.15,12-52.53,30.68-12,18-13.89,37-2.54,56.26a36.43,36.43,0,0,0,13.09,13,21.21,21.21,0,0,0,28.46-6.74c3.18-5,2.26-7.76-3.27-9.59-2-.66-4.08-1.16-6.12-1.71-5.69-1.54-9.23-5.39-11.12-10.76-2.93-8.31-2.53-16.56,2.23-24,7.24-11.31,17.26-19,30.77-21.49a59.27,59.27,0,0,1,31.31,2.87c30.95,11.23,39,39.78,34.85,60.69-3.33,17-13.59,29.41-28.51,37.9-10.74,6.11-22.43,7.54-34.58,6,70.7,42.74,164.46,49.44,246.88,7.61C455.16,442.23,496.65,362.71,505.48,310.21Z" fill="#FFFFFF"/>
</svg>